<?xml version="1.0" encoding="UTF-8"?><svg id="Layer_1" xmlns="http://www.w3.org/2000/svg" viewBox="0 0 1919.84 1919.84"><path d="M1746.56,0H173.29C77.58,0,0,77.58,0,173.29v1573.27c0,95.7,77.58,173.29,173.29,173.29h1573.27c95.7,0,173.29-77.58,173.29-173.29V173.29c0-95.7-77.58-173.29-173.29-173.29ZM1561.13,1044.78h-133.21c-.99,0-1.8.8-1.8,1.8v407.63l-158.49,158.49h-240.67v-173.17h162.29c15.73,0,28.48-12.75,28.48-28.48v-70.26h-515.64v70.78c0,15.73,12.75,28.48,28.48,28.48h162.29v173.17h-240.67l-158.49-158.49v-409.43h-135.01v-170.23h135.01v-409.43l158.49-158.49h240.67v173.16h-44.21c-80.94,0-146.56,65.62-146.56,146.56v642.5h515.64v-643.01c0-80.94-65.62-146.56-146.56-146.56h-44.21v-173.16h240.67l158.49,158.49v407.63c0,.99.8,1.8,1.8,1.8h133.21v170.23Z"/></svg>