<?xml version="1.0" encoding="UTF-8"?><svg id="Layer_2" xmlns="http://www.w3.org/2000/svg" viewBox="0 0 151.7 164.84"><g id="Layer_1-2"><path d="M140.47,71.65c-3.21,0-5.8-2.6-5.8-5.8V19.99L114.67,0h-30.36v21.85c13.29,0,24.07,10.78,24.07,24.07v75.55H43.32V45.98c0-13.29,10.78-24.07,24.07-24.07h0V.06h-30.36l-20,19.99v51.65H0v21.48h17.03v51.65l20,20h30.36v-21.85h-14.9c-5.06,0-9.17-4.11-9.17-9.17v-3.35h65.05v3.29c0,5.06-4.11,9.17-9.17,9.17h-14.9v21.85h30.36l20-20v-45.85c0-3.21,2.6-5.8,5.8-5.8h11.23v-21.48h-11.23Z"/></g></svg>