<?xml version="1.0" encoding="UTF-8"?><svg id="Layer_1" xmlns="http://www.w3.org/2000/svg" viewBox="0 0 24 24"><rect width="24" height="24" style="fill:none;"/><path d="M13.7,2.09c.74.2,1.49.37,2.22.59,2.41.74,4.44,2.08,6.05,4.03.23.28.47.56.68.86.5.72.41,1.54-.2,1.94-.64.44-1.46.25-1.97-.5-.8-1.15-1.81-2.11-2.99-2.85-1.37-.86-2.86-1.29-4.46-1.48-1.71-.2-3.34.07-4.92.69-1.83.71-3.41,1.96-4.53,3.57-.25.35-.51.67-.95.74-.53.09-1.04,0-1.36-.5s-.33-1.06.03-1.51c.67-.84,1.33-1.69,2.12-2.4,1.56-1.41,3.41-2.32,5.45-2.84.48-.13.97-.25,1.45-.37,1.63-.11,1.97-.2,3.38.03Z"/><path d="M11.75,13.36c-2.58-.09-4.36,2.17-4.39,4.27-.03,2.25,1.84,4.41,4.33,4.42,2.39,0,4.33-1.91,4.38-4.29.05-2.37-1.92-4.47-4.32-4.4ZM11.75,19.98c-1.26,0-2.28-1-2.3-2.26-.02-1.31.92-2.28,2.22-2.29,1.3,0,2.3.95,2.32,2.22.02,1.25-1,2.31-2.24,2.33Z"/><path d="M4.82,10.76c.1-.29.15-.62.33-.86,3.18-4.46,9.95-4.65,13.25.02.64.92.23,1.96-.82,2.1-.58.09-1.02-.21-1.36-.68-.77-1.06-1.78-1.8-3.07-2.11-2.07-.51-4.34.18-5.64,1.87-.18.23-.36.47-.59.65-.41.32-.87.39-1.37.15-.47-.22-.7-.59-.74-1.14Z"/></svg>